<?xml version="1.0" standalone="no"?>
<!DOCTYPE svg PUBLIC "-//W3C//DTD SVG 20010904//EN"
 "http://www.w3.org/TR/2001/REC-SVG-20010904/DTD/svg10.dtd">
<svg version="1.0" xmlns="http://www.w3.org/2000/svg"
 width="134.000000pt" height="134.000000pt" viewBox="0 0 134.000000 134.000000"
 preserveAspectRatio="xMidYMid meet">
<metadata>
Created by potrace 1.11, written by Peter Selinger 2001-2013
</metadata>
<g transform="translate(0.000000,134.000000) scale(0.100000,-0.100000)"
fill="#000000" stroke="none">
<path d="M475 1227 c-104 -60 -206 -119 -225 -130 -19 -10 -63 -36 -97 -55
l-63 -36 0 -336 0 -335 285 -165 c157 -91 292 -164 299 -162 8 1 92 48 187
103 178 103 191 111 317 182 l72 41 0 335 0 336 -216 125 c-119 69 -235 136
-258 148 -22 13 -50 29 -61 36 -11 7 -27 15 -35 18 -8 3 -99 -43 -205 -105z
m391 -225 l189 -108 1 -327 c0 -181 -3 -330 -6 -332 -4 -2 -37 14 -74 35 -38
22 -72 40 -76 40 -4 0 -13 6 -19 14 -10 12 -28 5 -112 -43 l-101 -58 -151 88
c-84 48 -170 99 -193 112 l-41 24 1 224 1 223 185 108 c102 59 190 107 196
108 7 0 97 -49 200 -108z"/>
<path d="M575 838 c-50 -28 -92 -53 -94 -55 -4 -2 -5 -139 -2 -203 1 -21 17
-34 96 -78 l95 -54 67 38 c38 21 81 46 98 55 l30 16 0 111 0 111 -84 50 c-46
28 -91 53 -100 56 -9 3 -57 -18 -106 -47z"/>
</g>
</svg>
